<svg width="67" height="68" viewBox="0 0 67 68" fill="none" xmlns="http://www.w3.org/2000/svg">
<g clip-path="url(#clip0_507_21971)">
<path d="M32.7548 59.5442C31.9076 60.7423 30.2553 61.023 29.0572 60.1757L10.3042 46.9147C9.10301 46.0653 8.82003 44.4162 9.6673 43.218C10.5124 42.023 12.1659 41.7337 13.3672 42.5832C13.8001 42.8893 14.1074 43.2996 14.2931 43.7555C15.179 42.7823 16.6781 42.605 17.7822 43.3857C18.215 43.6917 18.5254 44.1042 18.7112 44.5601C19.6002 43.5891 21.0952 43.4042 22.1992 44.185L22.8424 43.2755L28.3093 47.1414L27.6662 48.0509C28.7702 48.8316 29.0974 50.3049 28.4718 51.4623C28.9667 51.4876 29.4591 51.6429 29.8918 51.9489C30.9959 52.7297 31.3221 54.1978 30.7061 55.3618C31.214 55.3829 31.7049 55.5503 32.1199 55.844C33.3183 56.6915 33.5999 58.3491 32.7548 59.5442ZM37.2296 51.3134C37.2387 51.6399 37.6156 51.8122 37.8776 51.6211C38.6053 51.0911 39.2627 50.441 39.8083 49.6695C41.9752 46.6052 41.7919 42.5797 39.6228 39.7521C37.7623 41.8242 35.8801 43.5278 34.2158 44.8633C36.1245 46.5422 37.166 48.9017 37.2296 51.3134ZM15.9329 36.2536C18.231 35.5122 20.8028 35.7076 23.0186 36.9453C23.7263 34.9332 24.7053 32.5909 26.0387 30.1462C22.6498 29.0437 18.7902 30.2102 16.6234 33.2744C16.0915 34.0263 15.6863 34.8601 15.4236 35.7429C15.331 36.0537 15.6222 36.3536 15.9329 36.2536ZM37.5757 28.2378C38.9944 29.2411 40.9652 28.903 41.9684 27.4843C42.9716 26.0655 42.6336 24.0948 41.2148 23.0915C39.7961 22.0883 37.8254 22.4264 36.8221 23.8451C35.8189 25.2638 36.157 27.2346 37.5757 28.2378ZM23.1628 38.9798C24.2892 35.2888 26.2081 30.7385 29.2632 26.4182C32.335 22.0742 36.5195 19.0909 40.118 17.1425L47.1908 22.144C46.5531 26.1861 45.1351 31.1257 42.0633 35.4696C39.0081 39.79 35.3576 43.1157 32.2531 45.4079C31.9444 45.6359 31.5232 45.6362 31.2098 45.4145L31.1992 45.407L29.6423 46.5206C29.515 46.6117 29.3625 46.6609 29.2059 46.6613C29.0494 46.6617 28.8966 46.6133 28.7688 46.5229L23.2733 42.6369C23.1456 42.5466 23.0492 42.4188 22.9974 42.2712C22.9455 42.1236 22.9409 41.9635 22.9842 41.8132L23.5137 39.9723L23.5043 39.9657C23.1909 39.7439 23.0507 39.3468 23.1628 38.9798ZM36.1948 23.4014C34.9468 25.1663 35.3672 27.6171 37.1321 28.8651C38.897 30.1131 41.3478 29.6927 42.5958 27.9278C43.8438 26.1629 43.4234 23.7122 41.6585 22.4641C39.8936 21.2161 37.4429 21.6365 36.1948 23.4014ZM47.6804 15.131C47.6671 14.5601 47.1083 14.165 46.5656 14.3426C45.3754 14.7324 43.2942 15.4956 40.8779 16.7386L47.3171 21.292C47.6836 18.5996 47.7096 16.383 47.6804 15.131Z" fill="#2563EB"/>
</g>
<defs>
<clipPath id="clip0_507_21971">
<rect width="47.8746" height="47.8746" fill="white" transform="translate(27.7763 0.634766) rotate(35.2658)"/>
</clipPath>
</defs>
</svg>
